<svg width="49" height="48" viewBox="0 0 49 48" fill="none" xmlns="http://www.w3.org/2000/svg">
<circle cx="24.625" cy="24" r="23.25" fill="white" stroke="white" stroke-width="1.5"/>
<path d="M27.9545 32.2955C28.3938 32.7348 29.1062 32.7348 29.5455 32.2955C29.9848 31.8562 29.9848 31.1438 29.5455 30.7045L27.9545 32.2955ZM21.25 24L20.4545 23.2045C20.0152 23.6438 20.0152 24.3562 20.4545 24.7955L21.25 24ZM29.5455 17.2955C29.9848 16.8562 29.9848 16.1438 29.5455 15.7045C29.1062 15.2652 28.3938 15.2652 27.9545 15.7045L29.5455 17.2955ZM29.5455 30.7045L22.0455 23.2045L20.4545 24.7955L27.9545 32.2955L29.5455 30.7045ZM22.0455 24.7955L29.5455 17.2955L27.9545 15.7045L20.4545 23.2045L22.0455 24.7955Z" fill="#FFBC15"/>
</svg>
