<svg width="24" height="20" viewBox="0 0 24 20" fill="none" xmlns="http://www.w3.org/2000/svg">
<path d="M12 0.865234C5.3832 0.865234 0 4.96343 0 10.0008C0 15.0381 5.3832 19.1363 12 19.1363C18.6168 19.1363 24 15.0381 24 10.0008C24 4.96343 18.6168 0.865234 12 0.865234ZM12 17.3092C6.7068 17.3092 2.4 14.0304 2.4 10.0008C2.4 5.97108 6.7068 2.69234 12 2.69234C17.2932 2.69234 21.6 5.97108 21.6 10.0008C21.6 14.0304 17.2932 17.3092 12 17.3092Z" fill="#A3A3A3"/>
<path d="M13.2027 5.43359H10.8027V10.9149H18.0027V9.08781H13.2027V5.43359Z" fill="#A3A3A3"/>
</svg>
