<svg width="53" height="15" viewBox="0 0 53 15" fill="none" xmlns="http://www.w3.org/2000/svg">
<path d="M2.36 1.54V6.2H7.44V7.7H2.36V12.5H8.04V14H0.54V0.0399997H8.04V1.54H2.36ZM14.8739 12.32L18.2739 3.04H20.2139L15.9139 14H13.7939L9.49391 3.04H11.4539L14.8739 12.32ZM32.0048 8.1C32.0048 8.44667 31.9848 8.81333 31.9448 9.2H23.1848C23.2515 10.28 23.6182 11.1267 24.2848 11.74C24.9648 12.34 25.7848 12.64 26.7448 12.64C27.5315 12.64 28.1848 12.46 28.7048 12.1C29.2382 11.7267 29.6115 11.2333 29.8248 10.62H31.7848C31.4915 11.6733 30.9048 12.5333 30.0248 13.2C29.1448 13.8533 28.0515 14.18 26.7448 14.18C25.7048 14.18 24.7715 13.9467 23.9448 13.48C23.1315 13.0133 22.4915 12.3533 22.0248 11.5C21.5582 10.6333 21.3248 9.63333 21.3248 8.5C21.3248 7.36667 21.5515 6.37333 22.0048 5.52C22.4582 4.66667 23.0915 4.01333 23.9048 3.56C24.7315 3.09333 25.6782 2.86 26.7448 2.86C27.7848 2.86 28.7048 3.08667 29.5048 3.54C30.3048 3.99333 30.9182 4.62 31.3448 5.42C31.7848 6.20667 32.0048 7.1 32.0048 8.1ZM30.1248 7.72C30.1248 7.02667 29.9715 6.43333 29.6648 5.94C29.3582 5.43333 28.9382 5.05333 28.4048 4.8C27.8848 4.53333 27.3048 4.4 26.6648 4.4C25.7448 4.4 24.9582 4.69333 24.3048 5.28C23.6648 5.86667 23.2982 6.68 23.2048 7.72H30.1248ZM39.7472 2.84C41.0805 2.84 42.1605 3.24667 42.9872 4.06C43.8139 4.86 44.2272 6.02 44.2272 7.54V14H42.4272V7.8C42.4272 6.70667 42.1539 5.87333 41.6072 5.3C41.0605 4.71333 40.3139 4.42 39.3672 4.42C38.4072 4.42 37.6405 4.72 37.0672 5.32C36.5072 5.92 36.2272 6.79333 36.2272 7.94V14H34.4072V3.04H36.2272V4.6C36.5872 4.04 37.0739 3.60667 37.6872 3.3C38.3139 2.99333 39.0005 2.84 39.7472 2.84ZM49.4202 4.54V11C49.4202 11.5333 49.5335 11.9133 49.7602 12.14C49.9868 12.3533 50.3802 12.46 50.9402 12.46H52.2802V14H50.6402C49.6268 14 48.8668 13.7667 48.3602 13.3C47.8535 12.8333 47.6002 12.0667 47.6002 11V4.54H46.1802V3.04H47.6002V0.279999H49.4202V3.04H52.2802V4.54H49.4202Z" fill="#FF2957"/>
</svg>
