<svg width="73" height="72" viewBox="0 0 73 72" fill="none" xmlns="http://www.w3.org/2000/svg">
<circle cx="36.5" cy="36" r="36" fill="#FFBC15"/>
<path d="M34.5 46.2143C34.5 47.0427 35.1716 47.7143 36 47.7143C36.8284 47.7143 37.5 47.0427 37.5 46.2143H34.5ZM39.6712 38.8836C40.486 38.7338 41.0251 37.9519 40.8753 37.1371C40.7255 36.3223 39.9436 35.7833 39.1288 35.9331L39.6712 38.8836ZM32.8712 35.9331C32.0564 35.7833 31.2745 36.3223 31.1247 37.1371C30.9749 37.9519 31.514 38.7338 32.3288 38.8836L32.8712 35.9331ZM41.3014 51.0026C42.1223 50.8914 42.6977 50.1357 42.5864 49.3148C42.4752 48.4939 41.7195 47.9186 40.8986 48.0298L41.3014 51.0026ZM31.1014 48.0298C30.2805 47.9186 29.5248 48.4939 29.4136 49.3148C29.3024 50.1357 29.8777 50.8914 30.6986 51.0026L31.1014 48.0298ZM39.5118 54.8695C40.3379 54.8078 40.9576 54.0881 40.8958 53.2619C40.8341 52.4358 40.1144 51.8161 39.2882 51.8779L39.5118 54.8695ZM32.7118 51.8779C31.8856 51.8161 31.1659 52.4358 31.1042 53.2619C31.0424 54.0881 31.6621 54.8078 32.4882 54.8695L32.7118 51.8779ZM44.5192 42.1533L43.9449 40.7676L44.5192 42.1533ZM27.4808 42.1533L26.9066 43.539H26.9066L27.4808 42.1533ZM39.6 46.2143C39.6 47.0427 40.2716 47.7143 41.1 47.7143C41.9284 47.7143 42.6 47.0427 42.6 46.2143H39.6ZM29.4 46.2143C29.4 47.0427 30.0716 47.7143 30.9 47.7143C31.7284 47.7143 32.4 47.0427 32.4 46.2143H29.4ZM37.5 46.2143V37.7143H34.5V46.2143H37.5ZM39.1288 35.9331C38.1323 36.1163 37.0838 36.2143 36 36.2143V39.2143C37.2642 39.2143 38.4943 39.1 39.6712 38.8836L39.1288 35.9331ZM36 36.2143C34.9162 36.2143 33.8677 36.1163 32.8712 35.9331L32.3288 38.8836C33.5057 39.1 34.7358 39.2143 36 39.2143V36.2143ZM40.8986 48.0298C39.3136 48.2446 37.676 48.3572 36 48.3572V51.3572C37.8103 51.3572 39.5824 51.2355 41.3014 51.0026L40.8986 48.0298ZM36 48.3572C34.324 48.3572 32.6864 48.2446 31.1014 48.0298L30.6986 51.0026C32.4176 51.2355 34.1897 51.3572 36 51.3572V48.3572ZM39.2882 51.8779C38.2081 51.9586 37.1111 52 36 52V55C37.1856 55 38.3572 54.9558 39.5118 54.8695L39.2882 51.8779ZM36 52C34.889 52 33.7919 51.9586 32.7118 51.8779L32.4882 54.8695C33.6428 54.9558 34.8144 55 36 55V52ZM20.5 31.6429C20.5 28.8999 22.054 26.275 24.851 24.2772C27.6452 22.2813 31.5822 21 36 21V18C31.029 18 26.466 19.4369 23.1073 21.836C19.7516 24.2329 17.5 27.6795 17.5 31.6429H20.5ZM36 21C40.4178 21 44.3548 22.2813 47.149 24.2772C49.946 26.275 51.5 28.8999 51.5 31.6429H54.5C54.5 27.6795 52.2484 24.2329 48.8927 21.836C45.534 19.4369 40.971 18 36 18V21ZM51.5 31.6429C51.5 35.3025 48.6943 38.7992 43.9449 40.7676L45.0934 43.539C50.4855 41.3044 54.5 36.961 54.5 31.6429H51.5ZM28.0551 40.7676C23.3057 38.7992 20.5 35.3025 20.5 31.6429H17.5C17.5 36.961 21.5145 41.3044 26.9066 43.539L28.0551 40.7676ZM39.6 45.904V46.2143H42.6V45.904H39.6ZM29.4 45.904V46.2143H32.4V45.904H29.4ZM26.9066 43.539C27.7326 43.8813 28.3964 44.3178 28.8315 44.7706C29.2636 45.2203 29.4 45.605 29.4 45.904H32.4C32.4 44.6115 31.7904 43.5202 30.9947 42.6921C30.2019 41.867 29.1561 41.2239 28.0551 40.7676L26.9066 43.539ZM43.9449 40.7676C42.8439 41.2239 41.7981 41.867 41.0053 42.6921C40.2096 43.5202 39.6 44.6115 39.6 45.904H42.6C42.6 45.605 42.7364 45.2203 43.1685 44.7706C43.6036 44.3178 44.2674 43.8813 45.0934 43.539L43.9449 40.7676Z" fill="white"/>
</svg>
