<svg width="50" height="52" viewBox="0 0 50 52" fill="none" xmlns="http://www.w3.org/2000/svg">
<path d="M0 26.0001C0 19.1157 2.63392 12.5132 7.32233 7.64523C12.0107 2.77722 18.3696 0.0424004 25 0.0424004C31.6304 0.0424004 37.9893 2.77722 42.6777 7.64523C47.3661 12.5132 50 19.1157 50 26.0001C50 32.8845 47.3661 39.4869 42.6777 44.3549C37.9893 49.2229 31.6304 51.9578 25 51.9578C18.3696 51.9578 12.0107 49.2229 7.32233 44.3549C2.63392 39.4869 0 32.8845 0 26.0001ZM23.4375 37.3566C23.4375 37.7868 23.6021 38.1995 23.8951 38.5037C24.1882 38.808 24.5856 38.9789 25 38.9789C25.4144 38.9789 25.8118 38.808 26.1049 38.5037C26.3979 38.1995 26.5625 37.7868 26.5625 37.3566L26.5625 18.56L33.2687 25.5264C33.5621 25.831 33.9601 26.0021 34.375 26.0021C34.7899 26.0021 35.1879 25.831 35.4813 25.5264C35.7746 25.2217 35.9395 24.8085 35.9395 24.3777C35.9395 23.9469 35.7746 23.5337 35.4813 23.2291L26.1063 13.495C25.9611 13.3439 25.7887 13.224 25.5989 13.1422C25.409 13.0604 25.2055 13.0183 25 13.0183C24.7945 13.0183 24.591 13.0604 24.4011 13.1422C24.2113 13.224 24.0389 13.3439 23.8937 13.495L14.5187 23.2291C14.2254 23.5337 14.0605 23.9469 14.0605 24.3777C14.0605 24.8085 14.2254 25.2217 14.5187 25.5264C14.8121 25.831 15.2101 26.0021 15.625 26.0021C16.0399 26.0021 16.4379 25.831 16.7313 25.5264L23.4375 18.56L23.4375 37.3566Z" fill="white"/>
</svg>
