<svg width="73" height="72" viewBox="0 0 73 72" fill="none" xmlns="http://www.w3.org/2000/svg">
<circle cx="36.5" cy="36" r="36" fill="#FFBC15"/>
<path d="M53.4393 55.0607C54.0251 55.6464 54.9749 55.6464 55.5607 55.0607C56.1464 54.4749 56.1464 53.5251 55.5607 52.9393L53.4393 55.0607ZM33.5 46.5C26.0442 46.5 20 40.4558 20 33H17C17 42.1127 24.3873 49.5 33.5 49.5V46.5ZM20 33C20 25.5442 26.0442 19.5 33.5 19.5V16.5C24.3873 16.5 17 23.8873 17 33H20ZM33.5 19.5C40.9558 19.5 47 25.5442 47 33H50C50 23.8873 42.6127 16.5 33.5 16.5V19.5ZM55.5607 52.9393L45.1673 42.5459L43.0459 44.6673L53.4393 55.0607L55.5607 52.9393ZM47 33C47 36.7283 45.4906 40.1013 43.0459 42.5459L45.1673 44.6673C48.1515 41.683 50 37.5559 50 33H47ZM43.0459 42.5459C40.6013 44.9906 37.2283 46.5 33.5 46.5V49.5C38.0559 49.5 42.183 47.6515 45.1673 44.6673L43.0459 42.5459Z" fill="white"/>
</svg>
