<svg width="73" height="72" viewBox="0 0 73 72" fill="none" xmlns="http://www.w3.org/2000/svg">
<circle cx="36.5" cy="36" r="36" fill="#FFBC15"/>
<path d="M32.6809 43.6796C31.3031 43.5607 29.9086 43.5 28.5 43.5H27C22.0294 43.5 18 39.4706 18 34.5C18 29.5294 22.0294 25.5 27 25.5H28.5C29.9086 25.5 31.3031 25.4393 32.6809 25.3204M32.6809 43.6796C33.1866 45.603 33.8474 47.4635 34.6493 49.2469C35.1442 50.3476 34.7684 51.6655 33.7232 52.269L32.4106 53.0268C31.3078 53.6635 29.8912 53.2612 29.3568 52.1053C28.1036 49.3946 27.1308 46.5278 26.4757 43.5419M32.6809 43.6796C31.9103 40.749 31.5 37.6724 31.5 34.5C31.5 31.3276 31.9104 28.251 32.6809 25.3204M32.6809 43.6796C38.9999 44.2248 44.9689 45.9943 50.3494 48.7498M32.6809 25.3204C38.9999 24.7752 44.9689 23.0057 50.3494 20.2502M50.3494 20.2502C50.114 19.4919 49.8603 18.7417 49.5888 18M50.3494 20.2502C51.4194 23.6965 52.1115 27.3092 52.3772 31.0398M50.3494 48.7498C50.114 49.5081 49.8603 50.2583 49.5888 51M50.3494 48.7498C51.4194 45.3035 52.1115 41.6907 52.3772 37.9602M52.3772 31.0398C53.3688 31.8653 54 33.1089 54 34.5C54 35.8911 53.3688 37.1347 52.3772 37.9602M52.3772 31.0398C52.4586 32.1826 52.5 33.3365 52.5 34.5C52.5 35.6635 52.4586 36.8174 52.3772 37.9602" stroke="white" stroke-width="3" stroke-linecap="round" stroke-linejoin="round"/>
</svg>
