<svg width="16" height="15" viewBox="0 0 16 15" fill="none" xmlns="http://www.w3.org/2000/svg">
<path d="M7.9605 5.2206C6.66233 5.2206 5.60293 6.24492 5.60293 7.50009C5.60293 8.75525 6.66233 9.77957 7.9605 9.77957C9.25866 9.77957 10.3181 8.75525 10.3181 7.50009C10.3181 6.24492 9.25866 5.2206 7.9605 5.2206ZM15.0314 7.50009C15.0314 6.55614 15.0403 5.62075 14.9854 4.67852C14.9306 3.5841 14.6724 2.61279 13.8447 1.8125C13.0152 1.01049 12.0124 0.762532 10.8805 0.70952C9.90421 0.656509 8.93677 0.665059 7.96227 0.665059C6.98599 0.665059 6.01856 0.656509 5.04405 0.70952C3.91213 0.762532 2.90756 1.0122 2.07985 1.8125C1.25036 2.6145 0.993915 3.5841 0.939088 4.67852C0.884261 5.62246 0.893104 6.55785 0.893104 7.50009C0.893104 8.44232 0.884261 9.37942 0.939088 10.3216C0.993915 11.4161 1.25213 12.3874 2.07985 13.1877C2.90933 13.9897 3.91213 14.2376 5.04405 14.2906C6.02033 14.3437 6.98776 14.3351 7.96227 14.3351C8.93854 14.3351 9.90598 14.3437 10.8805 14.2906C12.0124 14.2376 13.017 13.988 13.8447 13.1877C14.6742 12.3857 14.9306 11.4161 14.9854 10.3216C15.042 9.37942 15.0314 8.44403 15.0314 7.50009ZM7.9605 11.0074C5.95312 11.0074 4.33306 9.44098 4.33306 7.50009C4.33306 5.55919 5.95312 3.99279 7.9605 3.99279C9.96788 3.99279 11.5879 5.55919 11.5879 7.50009C11.5879 9.44098 9.96788 11.0074 7.9605 11.0074ZM11.7365 4.66826C11.2678 4.66826 10.8893 4.30231 10.8893 3.84915C10.8893 3.39599 11.2678 3.03004 11.7365 3.03004C12.2052 3.03004 12.5837 3.39599 12.5837 3.84915C12.5838 3.95676 12.562 4.06333 12.5195 4.16277C12.4769 4.26221 12.4145 4.35256 12.3358 4.42865C12.2572 4.50474 12.1637 4.56507 12.0609 4.60618C11.958 4.6473 11.8478 4.6684 11.7365 4.66826Z" fill="#484848"/>
</svg>
