<svg width="15" height="11" viewBox="0 0 15 11" fill="none" xmlns="http://www.w3.org/2000/svg">
<path d="M4.9752 10.9685C10.1333 10.9685 12.9549 6.93504 12.9549 3.44339C12.9549 3.33052 12.9549 3.21604 12.9498 3.10317C13.4992 2.72788 13.9733 2.26324 14.35 1.73102C13.8368 1.94455 13.293 2.08527 12.7362 2.14863C13.3227 1.8178 13.762 1.29726 13.9724 0.68377C13.4214 0.991838 12.8183 1.2081 12.1895 1.32309C11.7668 0.898238 11.2074 0.616789 10.5981 0.522335C9.98871 0.42788 9.36335 0.525692 8.81885 0.800618C8.27435 1.07555 7.84111 1.51224 7.58623 2.04307C7.33136 2.5739 7.26907 3.16923 7.40902 3.73685C6.29397 3.68408 5.20313 3.41071 4.20725 2.93447C3.21136 2.45823 2.33267 1.78975 1.62817 0.972389C1.27052 1.55534 1.16138 2.2449 1.32289 2.90103C1.48441 3.55717 1.90449 4.1307 2.49782 4.50516C2.05321 4.4909 1.61837 4.37823 1.22837 4.17623V4.21251C1.22914 4.82319 1.45331 5.41489 1.86299 5.88759C2.27267 6.3603 2.84273 6.68502 3.47681 6.80686C3.23613 6.86943 2.98751 6.90062 2.73787 6.89957C2.56187 6.90007 2.38623 6.88468 2.21335 6.85361C2.39256 7.3793 2.74152 7.83892 3.21134 8.1681C3.68117 8.49728 4.24833 8.67954 4.83339 8.68933C3.8395 9.42604 2.61178 9.82559 1.34797 9.82365C1.12528 9.82454 0.902745 9.81242 0.681641 9.78737C1.96434 10.5591 3.454 10.9689 4.9752 10.9685Z" fill="#484848"/>
</svg>
