<svg width="14" height="13" viewBox="0 0 14 13" fill="none" xmlns="http://www.w3.org/2000/svg">
<path d="M3.29614 12.8798H0.560027V4.36088H3.29614V12.8798ZM1.92644 3.19884C1.05163 3.19884 0.341797 2.49797 0.341797 1.65219C0.341797 1.24586 0.50875 0.85617 0.805927 0.56885C1.1031 0.281531 1.50616 0.120117 1.92644 0.120117C2.34671 0.120117 2.74977 0.281531 3.04695 0.56885C3.34412 0.85617 3.51108 1.24586 3.51108 1.65219C3.51108 2.49797 2.80124 3.19884 1.92644 3.19884ZM13.5364 12.8798H10.8064V8.73289C10.8064 7.74447 10.7857 6.47716 9.38395 6.47716C7.96145 6.47716 7.74322 7.5508 7.74322 8.6618V12.8798H5.00993V4.36088H7.63387V5.52292H7.67205C8.03734 4.8535 8.92958 4.14716 10.2606 4.14716C13.0298 4.14716 13.5388 5.91027 13.5388 8.20018V12.8798H13.5364Z" fill="#484848"/>
</svg>
